<svg width="15" height="20" viewBox="0 0 15 20" fill="none" xmlns="http://www.w3.org/2000/svg">
<path fill-rule="evenodd" clip-rule="evenodd" d="M7.46224 0C3.3477 0 0.00012207 4.31148 0.00012207 9.61325C0.00012207 14.914 3.3477 19.226 7.46224 19.226C11.5768 19.226 14.9244 14.914 14.9244 9.61325C14.9244 4.31148 11.5768 0 7.46224 0ZM11.6224 6.40727L7.0303 13.0626C6.91723 13.226 6.75967 13.3102 6.60092 13.3102C6.47496 13.3102 6.3484 13.257 6.2425 13.149L3.37238 10.1906C3.12498 9.93575 3.08485 9.47008 3.28288 9.15067C3.48066 8.8323 3.84223 8.7801 4.08964 9.03541L6.53405 11.5545L10.7642 5.42424C10.9744 5.11827 11.3377 5.09088 11.5745 5.36275C11.8115 5.63409 11.8331 6.1013 11.6224 6.40727Z" fill="#3FDBB1"/>
</svg>
