<svg width="11" height="11" viewBox="0 0 11 11" fill="none" xmlns="http://www.w3.org/2000/svg">
<path d="M5.49961 0.365723C8.33555 0.365723 10.6301 2.66295 10.6301 5.49791C10.6301 8.33287 8.33555 10.6344 5.49961 10.6344C2.66367 10.6344 0.369141 8.33718 0.369141 5.50221C0.369141 2.66725 2.66367 0.365723 5.49961 0.365723Z" fill="#E74D89"/>
<path d="M5.5 11C2.46641 11 0 8.535 0 5.50215C0 2.465 2.46641 0 5.5 0C8.53359 0 11 2.465 11 5.49785C11 8.5307 8.53359 11 5.5 11ZM10.1363 6.25068C9.97734 6.19906 8.68398 5.81619 7.21016 6.04849C7.82461 7.73485 8.07383 9.11146 8.12109 9.39538C9.17813 8.68557 9.93008 7.55847 10.1363 6.25068ZM7.33477 9.82988C7.26602 9.41689 6.99102 7.98005 6.33359 6.26789C6.325 6.27219 6.31211 6.2765 6.30352 6.2765C3.65234 7.20141 2.70273 9.03833 2.6168 9.2104C3.41172 9.82988 4.41289 10.1998 5.5 10.1998C6.14883 10.2041 6.77187 10.0708 7.33477 9.82988ZM2.01094 8.64685C2.11836 8.46617 3.40742 6.33242 5.83086 5.54517C5.89102 5.52366 5.95547 5.50645 6.01562 5.48925C5.89961 5.22253 5.7707 4.95581 5.6332 4.69339C3.28711 5.3946 1.00977 5.36449 0.803516 5.36019C0.803516 5.40751 0.799219 5.45483 0.799219 5.50215C0.803516 6.71099 1.25898 7.81228 2.01094 8.64685ZM0.902344 4.54282C1.11289 4.54713 3.04648 4.55573 5.24648 3.97067C4.46875 2.58545 3.62656 1.42393 3.50625 1.25616C2.18711 1.87564 1.20742 3.08878 0.902344 4.54282ZM4.4 0.937818C4.52891 1.10989 5.38398 2.27141 6.15312 3.68674C7.82461 3.05866 8.5293 2.11224 8.61523 1.99179C7.78594 1.25616 6.69453 0.80876 5.5 0.80876C5.12187 0.80876 4.75234 0.856081 4.4 0.937818ZM9.13516 2.53383C9.03633 2.66719 8.25 3.67814 6.51406 4.38795C6.62148 4.61165 6.72891 4.83966 6.82773 5.06766C6.86211 5.14939 6.89648 5.23113 6.93086 5.30857C8.49492 5.11068 10.0461 5.42902 10.2008 5.45913C10.1879 4.35354 9.79258 3.33399 9.13516 2.53383Z" fill="#B2215A"/>
</svg>
