<svg width="11" height="11" viewBox="0 0 11 11" fill="none" xmlns="http://www.w3.org/2000/svg">
<path d="M5.50005 0C2.46285 0 0 2.52472 0 5.63924C0 8.13081 1.57593 10.2446 3.76127 10.9903C4.03614 11.0425 4.13706 10.868 4.13706 10.719C4.13706 10.5846 4.13196 10.1403 4.12959 9.66912C2.59947 10.0102 2.2766 9.00376 2.2766 9.00376C2.0264 8.35194 1.66592 8.17862 1.66592 8.17862C1.1669 7.82862 1.70353 7.83581 1.70353 7.83581C2.25583 7.87559 2.54664 8.41694 2.54664 8.41694C3.03719 9.27905 3.83331 9.02981 4.14717 8.88572C4.19653 8.52125 4.33907 8.27247 4.49636 8.13165C3.27473 7.98905 1.99052 7.50551 1.99052 5.34471C1.99052 4.72904 2.20537 4.22598 2.55721 3.83106C2.5001 3.68902 2.31184 3.11546 2.61049 2.3387C2.61049 2.3387 3.07235 2.18714 4.12339 2.91674C4.56212 2.79179 5.03263 2.72913 5.50005 2.72699C5.96746 2.72913 6.43834 2.79179 6.87788 2.91674C7.92765 2.18714 8.38887 2.3387 8.38887 2.3387C8.68825 3.11546 8.4999 3.68902 8.44279 3.83106C8.79545 4.22598 9.00884 4.72904 9.00884 5.34471C9.00884 7.51065 7.72218 7.98756 6.49745 8.12717C6.69472 8.30217 6.8705 8.64535 6.8705 9.17148C6.8705 9.92601 6.86413 10.5333 6.86413 10.719C6.86413 10.8691 6.96313 11.0449 7.24192 10.9896C9.42607 10.2431 11 8.12997 11 5.63924C11 2.52472 8.53751 0 5.50005 0ZM2.05995 8.03322C2.04783 8.06124 2.00484 8.06964 1.96568 8.05041C1.92579 8.03201 1.90338 7.99381 1.91632 7.96571C1.92816 7.93685 1.97124 7.92882 2.01104 7.94815C2.05102 7.96655 2.07379 8.00511 2.05995 8.03322ZM2.33049 8.28073C2.30426 8.30567 2.25298 8.29409 2.21819 8.25468C2.18221 8.21536 2.17547 8.16279 2.20207 8.13748C2.22912 8.11255 2.27885 8.12422 2.31491 8.16354C2.35089 8.20332 2.3579 8.25552 2.33049 8.28073ZM2.51609 8.59741C2.48239 8.62141 2.42729 8.59891 2.39322 8.54876C2.35952 8.49861 2.35952 8.43847 2.39395 8.41438C2.42811 8.39029 2.48239 8.41195 2.51691 8.46173C2.55052 8.51271 2.55052 8.57285 2.51609 8.59741ZM2.82998 8.96417C2.79983 8.99826 2.73562 8.98911 2.68863 8.9426C2.64054 8.89712 2.62715 8.8326 2.65739 8.79851C2.6879 8.76433 2.75247 8.77395 2.79983 8.82008C2.84756 8.86547 2.86213 8.93046 2.82998 8.96417ZM3.23565 9.08799C3.22236 9.13216 3.16052 9.15224 3.09822 9.13347C3.03601 9.11413 2.9953 9.0624 3.00787 9.01776C3.0208 8.97331 3.08292 8.9524 3.14567 8.97247C3.20778 8.99171 3.24859 9.04307 3.23565 9.08799ZM3.69733 9.14051C3.69888 9.18701 3.64605 9.22558 3.58066 9.22642C3.5149 9.22791 3.46171 9.19028 3.46098 9.14452C3.46098 9.09755 3.51262 9.05936 3.57838 9.05824C3.64378 9.05693 3.69733 9.09428 3.69733 9.14051ZM4.15087 9.12268C4.15871 9.16807 4.11326 9.21466 4.04832 9.22708C3.98447 9.23904 3.92536 9.21102 3.91726 9.16601C3.90933 9.11951 3.9556 9.07291 4.01936 9.06086C4.08439 9.04928 4.14259 9.07655 4.15087 9.12268Z" fill="#161614"/>
</svg>
