<svg width="11" height="11" viewBox="0 0 11 11" fill="none" xmlns="http://www.w3.org/2000/svg">
<path d="M11 1.30216C10.5953 1.52302 10.1603 1.67229 9.70381 1.73943C10.1698 1.39573 10.5276 0.85152 10.6961 0.203089C10.2601 0.521289 9.77708 0.752401 9.26303 0.876968C8.85134 0.337261 8.26483 0 7.61575 0C6.36937 0 5.35889 1.24334 5.35889 2.77691C5.35889 2.99455 5.37889 3.20651 5.41736 3.40974C3.54174 3.29394 1.87884 2.18839 0.765763 0.508318C0.571506 0.918457 0.460214 1.39548 0.460214 1.9044C0.460214 2.86781 0.858667 3.71779 1.46421 4.21576C1.09425 4.20136 0.746289 4.07644 0.441988 3.86845C0.441827 3.88004 0.441827 3.89167 0.441827 3.90336C0.441827 5.24884 1.21974 6.37122 2.25215 6.6263C2.06276 6.68977 1.86339 6.72369 1.65754 6.72369C1.51213 6.72369 1.37075 6.70631 1.23298 6.67388C1.52014 7.77716 2.35358 8.58001 3.34112 8.60244C2.56876 9.34721 1.59566 9.79117 0.538352 9.79117C0.356205 9.79117 0.176554 9.77805 0 9.7524C0.998727 10.5403 2.18499 11 3.45945 11C7.61048 11 9.88041 6.76854 9.88041 3.09892C9.88041 2.97851 9.87823 2.85875 9.87389 2.73968C10.3148 2.34815 10.6974 1.85905 11 1.30216Z" fill="#55ACEE"/>
</svg>
